<?xml version="1.0" encoding="UTF-8" standalone="no"?>
<!DOCTYPE svg PUBLIC "-//W3C//DTD SVG 1.1//EN"
 "http://www.w3.org/Graphics/SVG/1.1/DTD/svg11.dtd">
<!-- Generated by graphviz version 2.40.1 (20161225.0304)
 -->
<!-- Title: centraxx_wf Pages: 1 -->
<svg width="215pt" height="465pt"
 viewBox="0.00 0.00 214.60 465.20" xmlns="http://www.w3.org/2000/svg" xmlns:xlink="http://www.w3.org/1999/xlink">
<g id="graph0" class="graph" transform="scale(1 1) rotate(0) translate(4 461.2)">
<title>centraxx_wf</title>
<polygon fill="#ffffff" stroke="transparent" points="-4,4 -4,-461.2 210.6,-461.2 210.6,4 -4,4"/>
<!-- p0 -->
<g id="node1" class="node">
<title>p0</title>
<ellipse fill="#000000" stroke="#000000" cx="109.6" cy="-438.6" rx="3.6" ry="3.6"/>
<text text-anchor="middle" x="53" y="-446" font-family="Times,serif" font-size="14.00" fill="#000000">Channel.fromPath</text>
</g>
<!-- p1 -->
<g id="node2" class="node">
<title>p1</title>
<ellipse fill="none" stroke="#000000" cx="109.6" cy="-366" rx="68.7879" ry="18"/>
<text text-anchor="middle" x="109.6" y="-362.3" font-family="Times,serif" font-size="14.00" fill="#000000">unpackingVCF</text>
</g>
<!-- p0&#45;&gt;p1 -->
<g id="edge1" class="edge">
<title>p0&#45;&gt;p1</title>
<path fill="none" stroke="#000000" d="M109.6,-434.6967C109.6,-427.0869 109.6,-409.6632 109.6,-394.2684"/>
<polygon fill="#000000" stroke="#000000" points="113.1001,-394.0802 109.6,-384.0802 106.1001,-394.0802 113.1001,-394.0802"/>
<text text-anchor="middle" x="144.6" y="-405.8" font-family="Times,serif" font-size="14.00" fill="#000000">packedVCF</text>
</g>
<!-- p2 -->
<g id="node3" class="node">
<title>p2</title>
<ellipse fill="none" stroke="#000000" cx="109.6" cy="-279" rx="78.7863" ry="18"/>
<text text-anchor="middle" x="109.6" y="-275.3" font-family="Times,serif" font-size="14.00" fill="#000000">variantAnnotation</text>
</g>
<!-- p1&#45;&gt;p2 -->
<g id="edge2" class="edge">
<title>p1&#45;&gt;p2</title>
<path fill="none" stroke="#000000" d="M109.6,-347.9735C109.6,-336.1918 109.6,-320.5607 109.6,-307.1581"/>
<polygon fill="#000000" stroke="#000000" points="113.1001,-307.0033 109.6,-297.0034 106.1001,-307.0034 113.1001,-307.0033"/>
<text text-anchor="middle" x="140.1" y="-318.8" font-family="Times,serif" font-size="14.00" fill="#000000">readyVCF</text>
</g>
<!-- p3 -->
<g id="node4" class="node">
<title>p3</title>
<ellipse fill="none" stroke="#000000" cx="109.6" cy="-192" rx="77.1866" ry="18"/>
<text text-anchor="middle" x="109.6" y="-188.3" font-family="Times,serif" font-size="14.00" fill="#000000">extractVariantInfo</text>
</g>
<!-- p2&#45;&gt;p3 -->
<g id="edge3" class="edge">
<title>p2&#45;&gt;p3</title>
<path fill="none" stroke="#000000" d="M109.6,-260.9735C109.6,-249.1918 109.6,-233.5607 109.6,-220.1581"/>
<polygon fill="#000000" stroke="#000000" points="113.1001,-220.0033 109.6,-210.0034 106.1001,-220.0034 113.1001,-220.0033"/>
<text text-anchor="middle" x="137.1" y="-231.8" font-family="Times,serif" font-size="14.00" fill="#000000">annVCFs</text>
</g>
<!-- p4 -->
<g id="node5" class="node">
<title>p4</title>
<ellipse fill="none" stroke="#000000" cx="109.6" cy="-105" rx="87.1846" ry="18"/>
<text text-anchor="middle" x="109.6" y="-101.3" font-family="Times,serif" font-size="14.00" fill="#000000">createCentraxxXML</text>
</g>
<!-- p3&#45;&gt;p4 -->
<g id="edge4" class="edge">
<title>p3&#45;&gt;p4</title>
<path fill="none" stroke="#000000" d="M109.6,-173.9735C109.6,-162.1918 109.6,-146.5607 109.6,-133.1581"/>
<polygon fill="#000000" stroke="#000000" points="113.1001,-133.0033 109.6,-123.0034 106.1001,-133.0034 113.1001,-133.0033"/>
<text text-anchor="middle" x="158.1" y="-144.8" font-family="Times,serif" font-size="14.00" fill="#000000">extractedVariants</text>
</g>
<!-- p5 -->
<g id="node6" class="node">
<title>p5</title>
<ellipse fill="none" stroke="#000000" cx="109.6" cy="-18" rx="92.8835" ry="18"/>
<text text-anchor="middle" x="109.6" y="-14.3" font-family="Times,serif" font-size="14.00" fill="#000000">pushXMLtoCentraxX</text>
</g>
<!-- p4&#45;&gt;p5 -->
<g id="edge5" class="edge">
<title>p4&#45;&gt;p5</title>
<path fill="none" stroke="#000000" d="M109.6,-86.9735C109.6,-75.1918 109.6,-59.5607 109.6,-46.1581"/>
<polygon fill="#000000" stroke="#000000" points="113.1001,-46.0033 109.6,-36.0034 106.1001,-46.0034 113.1001,-46.0033"/>
<text text-anchor="middle" x="146.6" y="-57.8" font-family="Times,serif" font-size="14.00" fill="#000000">centraxXML</text>
</g>
</g>
</svg>
